<svg width="31" height="31" viewBox="0 0 31 31" fill="none" xmlns="http://www.w3.org/2000/svg">
<circle cx="15.432" cy="15.88" r="14.12" fill="#FFB347" stroke="white" stroke-width="2"/>
<path fill-rule="evenodd" clip-rule="evenodd" d="M20.1001 10.711V10.711C19.7912 10.711 19.5114 10.5407 19.3797 10.2746C19.1421 9.79304 18.8399 9.17766 18.661 8.84264C18.3969 8.34447 17.9688 8.0546 17.376 8.05064C17.366 8.04985 13.4976 8.04985 13.4877 8.05064C12.8948 8.0546 12.4676 8.34447 12.2026 8.84264C12.0246 9.17766 11.7224 9.79304 11.4848 10.2746C11.3531 10.5407 11.0724 10.711 10.7644 10.711V10.711C9.1117 10.711 7.77283 11.9916 7.77283 13.5717V18.273C7.77283 19.8522 9.1117 21.1337 10.7644 21.1337H20.1001C21.7519 21.1337 23.0908 19.8522 23.0908 18.273V13.5717C23.0908 11.9916 21.7519 10.711 20.1001 10.711Z" stroke="white" stroke-width="1.5" stroke-linecap="round" stroke-linejoin="round"/>
<path fill-rule="evenodd" clip-rule="evenodd" d="M12.8001 15.6409C12.7993 17.0292 13.9842 18.165 15.4332 18.1642C16.8797 18.1626 18.0612 17.0316 18.0637 15.6464C18.0662 14.2557 16.8855 13.1223 15.4348 13.1207C13.9759 13.1191 12.7885 14.2715 12.8001 15.6409Z" stroke="white" stroke-width="1.5" stroke-linecap="round" stroke-linejoin="round"/>
<path d="M19.4913 13.788C19.4113 13.7801 19.3323 13.7602 19.2438 13.7261C19.1454 13.6843 19.0601 13.6311 18.9777 13.551C18.8297 13.4004 18.744 13.2035 18.744 13.0003C18.744 12.8923 18.7671 12.7854 18.8121 12.6885C18.8573 12.5903 18.9108 12.5075 19.0075 12.4174C19.081 12.3561 19.1564 12.3068 19.2594 12.2634C19.5648 12.1477 19.9281 12.2168 20.1552 12.4339C20.2233 12.4981 20.2806 12.5755 20.3124 12.6407L20.3312 12.687C20.377 12.7854 20.4 12.8923 20.4 13.0003C20.4 13.2076 20.3154 13.3993 20.1584 13.5589C20.0226 13.6896 19.8443 13.7699 19.6542 13.788L19.572 13.7919L19.4913 13.788Z" fill="white"/>
</svg>
