<svg width="16" height="16" viewBox="0 0 16 16" fill="none" xmlns="http://www.w3.org/2000/svg">
<g clip-path="url(#clip0_63_903)">
<path d="M15.8627 0.137302C15.7407 0.0153646 15.5617 -0.0297604 15.3965 0.0197709L1.0565 4.3218C0.424562 4.51136 0 5.08199 0 5.74196C0 6.39277 0.437031 6.97218 1.06284 7.15099L7.11875 8.88124L8.849 14.9371C9.02781 15.5629 9.60722 16 10.2583 16C10.918 16 11.4886 15.5754 11.6782 14.9435L15.9802 0.603427C16.0298 0.438271 15.9847 0.25924 15.8627 0.137302ZM0.9375 5.74174C0.9375 5.49921 1.09356 5.28946 1.32588 5.21977L13.8851 1.45199L7.3615 7.97561L1.32037 6.24958C1.09497 6.18515 0.9375 5.97643 0.9375 5.74174ZM10.7802 14.6741C10.7106 14.9064 10.5008 15.0625 10.258 15.0625C10.0236 15.0625 9.81484 14.9051 9.75044 14.6796L8.02441 8.63849L14.548 2.11486L10.7802 14.6741Z" fill="#FFB347"/>
</g>
<defs>
<clipPath id="clip0_63_903">
<rect width="16" height="16" fill="white"/>
</clipPath>
</defs>
</svg>
