<svg width="16" height="16" viewBox="0 0 16 16" fill="none" xmlns="http://www.w3.org/2000/svg">
<g clip-path="url(#clip0_63_899)">
<path d="M15.553 7.59155C15.9585 7.19652 16.1016 6.61673 15.9266 6.07873C15.7519 5.54052 15.2954 5.15561 14.7352 5.0742L11.2762 4.57161C11.1006 4.54598 10.9489 4.43577 10.8704 4.27677L9.32347 1.14214C9.07297 0.634797 8.56585 0.319641 7.99997 0.319641C7.4341 0.319641 6.92697 0.634797 6.67647 1.14214C6.67647 1.14217 5.12957 4.27673 5.12957 4.27673C5.05107 4.4358 4.89935 4.54602 4.72404 4.57158L1.26485 5.07417C0.704598 5.15561 0.248067 5.54052 0.0734731 6.07845C-0.101621 6.61673 0.0414732 7.19655 0.446817 7.59145L2.94988 10.0316C3.07685 10.1553 3.13479 10.3335 3.10488 10.5081L2.51388 13.9535C2.41838 14.5114 2.64335 15.0644 3.101 15.3969C3.55875 15.7295 4.15438 15.7725 4.6555 15.5093L7.74932 13.8827C7.90625 13.8002 8.09366 13.8003 8.25044 13.8826L11.3445 15.5093C11.8456 15.7726 12.4413 15.7295 12.899 15.3969C13.3566 15.0644 13.5816 14.5114 13.4861 13.9535L12.8951 10.5083C12.8652 10.3335 12.9231 10.1553 13.0502 10.0315L15.553 7.59155ZM11.971 10.6665L12.5621 14.112C12.5975 14.3184 12.5174 14.5153 12.348 14.6384C12.2539 14.7067 12.145 14.7428 12.0328 14.7428C11.9837 14.7428 11.8895 14.7366 11.7805 14.6794L8.68672 13.0528C8.47554 12.9419 8.23819 12.8834 8.00004 12.8834C7.76175 12.8834 7.52425 12.942 7.31332 13.0528L4.21922 14.6795C4.00669 14.7912 3.794 14.7416 3.6521 14.6385C3.4826 14.5153 3.40257 14.3185 3.43794 14.1118L4.02891 10.6666C4.11091 10.1875 3.9521 9.6992 3.60419 9.36017L1.10125 6.92017C0.951067 6.77383 0.900192 6.56767 0.965004 6.36848C1.02979 6.16892 1.19222 6.03211 1.39972 6.00195L4.85879 5.49936C5.33997 5.42917 5.75525 5.1273 5.97025 4.6917L7.51713 1.5572C7.60988 1.36933 7.79041 1.25717 8 1.25717C8.2096 1.25717 8.39013 1.36933 8.48288 1.5572L10.0297 4.69167C10.2448 5.12733 10.6602 5.4292 11.1409 5.49933C11.9077 5.61067 13.3764 5.82392 14.6002 6.00195C14.8078 6.03211 14.9703 6.16902 15.0349 6.36817C15.0998 6.56777 15.0489 6.77386 14.8988 6.92008L12.3958 9.3602C12.0478 9.6992 11.8891 10.1876 11.971 10.6665Z" fill="#FFB347"/>
</g>
<defs>
<clipPath id="clip0_63_899">
<rect width="16" height="16" fill="white"/>
</clipPath>
</defs>
</svg>
